Jump_normalized_Motion_pl07
version=1
nRows=18
nColumns=43
inDegrees=yes
endheader
time		pelvis_tilt		pelvis_list		pelvis_rotation		pelvis_tx		pelvis_ty		pelvis_tz		hip_flexion_r		hip_adduction_r		hip_rotation_r		knee_angle_r		ankle_angle_r		subtalar_angle_r		mtp_angle_r		hip_flexion_l		hip_adduction_l		hip_rotation_l		knee_angle_l		ankle_angle_l		subtalar_angle_l		mtp_angle_l		lumbar_extension		lumbar_bending		lumbar_rotation		neck_flexion		neck_lateral_bending		neck_rotation		arm_flex_r		arm_add_r		arm_rot_r		elbow_flex_r		pro_sup_r		wrist_flex_r		wrist_dev_r		hand_finger_flex_r		arm_flex_l		arm_add_l		arm_rot_l		elbow_flex_l		pro_sup_l		wrist_flex_l		wrist_dev_l		hand_finger_flex_l		
2.297500		-3.797876		-16.725730		88.322931		-0.004475		1.583457		1.681276		100.371030		-9.452791		14.121098		-145.393195		27.329094		13.679491		18.975894		95.783082		-5.419807		5.939693		-144.653145		29.574937		11.688857		14.663286		-53.934402		-2.429546		-3.564067		35.169053		2.973877		0.201962		47.271122		-27.644019		8.051355		79.856231		94.655112		-16.199807		-8.008912		1.681682		57.138483		-32.113184		16.815726		74.377761		96.344822		-12.005569		2.206681		4.525059		
2.300177		-3.799658		-16.969934		88.326505		-0.004794		1.583075		1.680368		100.508744		-9.463438		14.190877		-145.428868		27.345628		13.680301		18.987951		95.895666		-5.328596		5.931474		-144.685302		29.607961		11.654336		14.666136		-53.628101		-2.470480		-3.543100		35.383535		3.103528		0.116516		48.660199		-27.596851		8.709447		79.635532		94.864913		-15.864621		-7.841216		1.509141		58.543326		-31.772903		17.557734		73.971512		96.174090		-11.898386		2.271247		4.469800		
2.302854		-3.792922		-17.202549		88.335461		-0.005099		1.583018		1.679423		100.578683		-9.449344		14.248087		-145.396944		27.353430		13.686139		18.993523		95.964534		-5.223561		5.929684		-144.662442		29.604146		11.634534		14.663320		-53.349549		-2.509104		-3.549733		35.603093		3.212633		0.077741		49.992110		-27.265093		9.119682		79.352935		95.007368		-15.703784		-7.691622		1.397758		59.843534		-31.270211		18.014465		73.564355		96.079802		-11.849343		2.349167		4.403343		
2.305530		-3.831514		-17.153082		88.370059		-0.005344		1.582944		1.678376		100.413559		-9.511149		14.351694		-145.502926		27.383698		13.651270		19.006043		95.767206		-5.121929		5.853754		-144.749429		29.570191		11.511646		14.639560		-53.270588		-2.604855		-3.535790		35.364696		3.519368		-0.014991		51.416097		-27.229723		9.822021		78.974190		95.435912		-15.424754		-7.521954		0.957331		61.628647		-31.004670		19.390438		72.844115		95.654183		-11.819856		2.286880		4.163456		
2.308207		-3.936448		-17.145561		88.355657		-0.005494		1.583211		1.677265		100.238112		-9.538444		14.492779		-145.531885		27.407327		13.644491		19.021898		95.527256		-5.041353		5.704102		-144.747840		29.537893		11.401433		14.596413		-53.217570		-2.772604		-3.517910		35.430135		3.733697		-0.157519		52.708621		-26.963364		10.129846		78.652359		95.840701		-15.176727		-7.413101		0.241481		63.336252		-30.496411		20.547893		72.083532		94.894936		-12.104459		2.053695		3.691722		
2.310884		-3.960685		-17.345915		88.343679		-0.005760		1.583055		1.676254		100.293239		-9.554098		14.547888		-145.553314		27.436850		13.672310		19.028224		95.565109		-4.973228		5.660494		-144.770896		29.517261		11.375520		14.567555		-52.941088		-2.845435		-3.531849		35.560365		3.870552		-0.198823		54.100890		-26.732983		10.702629		78.353682		96.026085		-14.869538		-7.228578		-0.052100		64.717310		-30.080332		21.224144		71.643558		94.724255		-12.050225		2.090625		3.477840		
2.313561		-3.994892		-17.430174		88.340619		-0.005974		1.583163		1.675247		100.210382		-9.571442		14.631275		-145.559188		27.475958		13.698964		19.032110		95.446453		-4.897016		5.602824		-144.765188		29.505407		11.320766		14.518579		-52.784991		-2.928667		-3.557237		35.481751		4.046268		-0.227669		55.527862		-26.501313		11.302252		78.040988		96.275196		-14.563858		-7.051279		-0.566400		66.238950		-29.750389		22.152850		71.124765		94.444462		-12.025334		2.038217		3.103560		
2.316237		-4.005676		-17.668436		88.328183		-0.006266		1.582984		1.674201		100.290512		-9.595804		14.691057		-145.564152		27.510912		13.720845		19.034900		95.481931		-4.846424		5.580546		-144.785124		29.542651		11.320058		14.499410		-52.475066		-2.965257		-3.572899		35.703220		4.121313		-0.263391		56.921348		-26.219052		11.877060		77.767023		96.412590		-14.317638		-6.892203		-0.773591		67.515863		-29.315180		22.653002		70.739790		94.379500		-11.944672		2.090669		2.918065		
2.318914		-4.012409		-17.788622		88.341001		-0.006520		1.583055		1.673165		100.234678		-9.645758		14.734040		-145.561950		27.553626		13.748683		19.036870		95.371989		-4.798261		5.554764		-144.778904		29.624518		11.326574		14.475739		-52.287149		-2.990683		-3.623200		35.712276		4.209042		-0.266774		58.369849		-25.931721		12.533993		77.463683		96.578924		-14.126176		-6.722574		-1.077934		68.905809		-28.980827		23.339972		70.317226		94.320512		-11.861113		2.079526		2.640071		
2.321591		-4.029622		-17.829476		88.366323		-0.006778		1.583347		1.672106		100.077927		-9.721437		14.787657		-145.543490		27.605312		13.778703		19.038200		95.144002		-4.743366		5.512206		-144.744915		29.755476		11.354520		14.436569		-52.198243		-3.011511		-3.699487		35.667145		4.293889		-0.263902		59.863650		-25.684400		13.274267		77.164719		96.753431		-13.932869		-6.574442		-1.574259		70.367407		-28.710645		24.150086		69.882629		94.169814		-11.811457		1.963388		2.184777		
2.324268		-4.049363		-17.910958		88.392028		-0.007022		1.583589		1.670976		99.956559		-9.809347		14.828215		-145.527412		27.650004		13.808326		19.041445		94.951380		-4.695103		5.467459		-144.716578		29.881701		11.393790		14.391229		-52.070343		-3.029083		-3.770416		35.743752		4.341970		-0.276066		61.302292		-25.392617		13.928871		76.887726		96.853810		-13.728840		-6.455147		-2.110026		71.744782		-28.371524		24.802671		69.484258		93.985920		-11.785903		1.854286		1.689979		
2.326944		-4.062797		-18.099870		88.408092		-0.007238		1.583601		1.669770		99.940766		-9.868469		14.847421		-145.530056		27.680831		13.829811		19.046128		94.900296		-4.655074		5.432512		-144.720763		29.946694		11.418649		14.365043		-51.817803		-3.054321		-3.817926		35.966775		4.372915		-0.302337		62.630490		-25.024500		14.408910		76.632015		96.901648		-13.554563		-6.342573		-2.416428		72.972210		-27.902237		25.157653		69.142176		93.905731		-11.770223		1.852229		1.392690		
2.329621		-4.072634		-18.130766		88.425190		-0.007473		1.583930		1.668542		99.743770		-9.913803		14.904410		-145.516414		27.733004		13.829642		19.050761		94.706592		-4.546309		5.414610		-144.707555		29.949168		11.388132		14.318324		-51.739660		-3.084831		-3.851811		35.923172		4.449143		-0.347398		64.072922		-24.880694		15.170403		76.425980		96.943959		-13.308294		-6.265573		-2.896392		74.389052		-27.571022		25.876057		68.790505		93.853373		-11.731695		1.783498		0.965166		
2.332298		-4.094896		-18.303700		88.402878		-0.007659		1.584034		1.667180		99.695917		-9.937507		14.924045		-145.514090		27.766002		13.836943		19.053658		94.687911		-4.452579		5.389390		-144.731298		29.859844		11.351940		14.287818		-51.499299		-3.155111		-3.864149		36.164691		4.510684		-0.394459		65.360551		-24.543285		15.625904		76.181828		96.940615		-13.146426		-6.182009		-3.170625		75.600246		-27.032991		26.166406		68.444661		93.813064		-11.765803		1.792136		0.704070		
2.334975		-4.124008		-18.249258		88.340107		-0.007792		1.584565		1.665751		99.360665		-9.894473		14.982502		-145.494371		27.833120		13.813199		19.044289		94.490733		-4.268365		5.357443		-144.758999		29.470146		11.057865		14.212464		-51.512107		-3.288498		-3.798065		36.049524		4.668975		-0.506818		66.793061		-24.599262		16.453994		76.032641		96.828835		-12.882347		-6.193960		-3.792479		77.103158		-26.608744		27.013622		68.027384		93.752575		-11.831565		1.677188		0.196698		
2.337652		-4.175855		-18.290719		88.232171		-0.007864		1.584999		1.664227		99.130345		-9.810541		15.048996		-145.487633		27.895853		13.790893		19.012055		94.417117		-4.102485		5.288399		-144.801261		28.978998		10.653385		14.144345		-51.417672		-3.476807		-3.693772		36.178164		4.846874		-0.657011		68.117636		-24.554504		17.080360		75.860894		96.531758		-12.624542		-6.213974		-4.530689		78.494739		-25.991780		27.621976		67.553329		93.563730		-11.982834		1.540629		-0.346932		
2.340328		-4.254695		-18.271669		88.095898		-0.007818		1.585553		1.662562		98.826667		-9.701545		15.150345		-145.501020		27.956578		13.777058		18.902541		94.262594		-3.938852		5.145725		-144.837954		28.464126		9.953840		14.095329		-51.387943		-3.729394		-3.534248		36.323737		5.029712		-0.877098		69.333847		-24.510680		17.529855		75.748166		95.770330		-12.303213		-6.297277		-5.992967		79.946996		-25.265408		28.351543		66.952432		93.086847		-12.232771		1.233149		-1.245750		
2.343005		-4.288667		-18.499337		87.980705		-0.007876		1.585643		1.660999		98.798709		-9.593709		15.198700		-145.506484		28.006107		13.771944		18.856849		94.422815		-3.762490		5.140241		-144.898864		28.022921		9.795851		14.075900		-51.076906		-3.896106		-3.468008		36.479198		5.188309		-0.969072		70.626566		-24.353461		18.097224		75.578244		95.666363		-12.005068		-6.228057		-6.275900		81.091349		-24.689880		28.602842		66.686224		93.041151		-12.225049		1.255372		-1.451898		
